<svg id="svg" version="1.1" xmlns="http://www.w3.org/2000/svg" xmlns:xlink="http://www.w3.org/1999/xlink" width="400" height="400" viewBox="0, 0, 400,400"><g id="svgg"><path id="path0" d="M153.533 236.778 C 153.460 236.985,152.373 237.196,151.118 237.245 C 149.863 237.295,148.918 237.467,149.017 237.628 C 149.116 237.788,148.388 238.028,147.399 238.160 C 146.409 238.292,144.790 238.508,143.800 238.640 C 142.810 238.772,142.000 239.023,142.000 239.197 C 142.000 239.370,141.325 239.627,140.500 239.768 C 136.907 240.380,136.400 240.502,136.400 240.759 C 136.400 240.908,135.822 241.074,135.116 241.128 C 134.409 241.182,133.734 241.355,133.616 241.514 C 133.497 241.673,132.860 241.866,132.200 241.942 C 131.540 242.019,130.901 242.240,130.781 242.434 C 130.660 242.627,130.169 242.710,129.689 242.617 C 129.209 242.525,128.712 242.618,128.585 242.825 C 128.457 243.031,127.935 243.200,127.425 243.200 C 126.915 243.200,126.263 243.483,125.977 243.828 C 125.690 244.173,125.128 244.370,124.728 244.265 C 124.328 244.161,124.000 244.268,124.000 244.504 C 124.000 244.740,123.882 244.815,123.737 244.670 C 123.592 244.525,123.232 244.607,122.937 244.852 C 122.642 245.097,122.400 245.195,122.400 245.069 C 122.400 244.944,121.793 245.094,121.051 245.405 C 120.309 245.715,119.560 245.840,119.387 245.684 C 119.213 245.528,119.201 245.625,119.359 245.900 C 119.548 246.227,119.362 246.417,118.824 246.450 C 117.675 246.520,117.511 246.567,116.553 247.100 C 116.087 247.360,115.592 247.458,115.453 247.319 C 115.314 247.180,115.200 247.277,115.200 247.533 C 115.200 247.790,114.840 248.000,114.400 248.000 C 113.960 248.000,113.600 248.180,113.600 248.400 C 113.600 248.620,113.340 248.800,113.023 248.800 C 112.353 248.800,109.538 250.368,109.106 250.982 C 108.944 251.212,108.809 251.250,108.806 251.066 C 108.803 250.882,107.967 251.197,106.950 251.766 C 105.932 252.335,104.841 252.800,104.526 252.800 C 104.211 252.800,104.064 252.980,104.200 253.200 C 104.336 253.420,104.157 253.600,103.802 253.600 C 103.448 253.600,102.507 254.042,101.712 254.582 C 100.917 255.123,100.089 255.455,99.871 255.321 C 99.651 255.184,99.602 255.280,99.762 255.538 C 99.919 255.792,99.844 256.000,99.596 256.000 C 99.347 256.000,98.359 256.540,97.400 257.200 C 96.441 257.860,95.490 258.400,95.287 258.400 C 95.085 258.400,94.396 258.895,93.758 259.500 C 92.294 260.887,90.302 262.208,89.870 262.079 C 89.689 262.025,89.655 262.165,89.794 262.390 C 89.933 262.616,89.901 262.800,89.721 262.800 C 89.542 262.800,88.631 263.520,87.697 264.400 C 86.763 265.280,85.789 266.000,85.533 266.000 C 85.276 266.000,85.178 266.111,85.314 266.248 C 85.669 266.603,84.574 267.600,83.829 267.600 C 83.467 267.600,83.200 267.939,83.200 268.400 C 83.200 268.840,82.951 269.200,82.646 269.200 C 82.341 269.200,81.774 269.686,81.385 270.279 C 80.996 270.873,80.268 271.768,79.768 272.269 C 79.267 272.769,78.536 273.723,78.143 274.389 C 77.749 275.055,77.286 275.600,77.114 275.600 C 76.941 275.600,76.800 275.870,76.800 276.200 C 76.800 276.530,76.620 276.800,76.400 276.800 C 76.180 276.800,76.000 277.057,76.000 277.371 C 76.000 277.686,75.767 278.181,75.483 278.471 C 75.199 278.762,74.727 279.585,74.435 280.300 C 74.142 281.015,73.745 281.600,73.551 281.600 C 73.358 281.600,73.200 281.960,73.200 282.400 C 73.200 282.840,73.020 283.200,72.800 283.200 C 72.580 283.200,72.400 283.549,72.400 283.976 C 72.400 284.403,72.220 284.864,72.000 285.000 C 71.780 285.136,71.600 285.687,71.600 286.224 C 71.600 286.761,71.375 287.203,71.100 287.206 C 70.767 287.210,70.800 287.342,71.200 287.600 C 71.600 287.858,71.633 287.990,71.300 287.994 C 71.012 287.997,70.800 288.510,70.800 289.200 C 70.800 289.860,70.620 290.400,70.400 290.400 C 70.180 290.400,70.000 291.210,70.000 292.200 C 70.000 293.190,69.838 294.000,69.640 294.000 C 69.442 294.000,69.270 296.706,69.257 300.013 C 69.243 303.747,69.379 305.936,69.617 305.789 C 69.844 305.649,70.000 306.471,70.000 307.800 C 70.000 309.196,70.151 309.954,70.400 309.800 C 70.741 309.589,71.032 311.407,70.837 312.530 C 70.806 312.711,70.965 312.745,71.190 312.606 C 71.429 312.459,71.600 312.775,71.600 313.364 C 71.600 313.921,71.960 315.017,72.400 315.800 C 72.840 316.583,73.200 317.489,73.200 317.812 C 73.200 318.135,73.380 318.400,73.600 318.400 C 73.820 318.400,74.000 318.760,74.000 319.200 C 74.000 319.640,74.180 320.000,74.400 320.000 C 74.620 320.000,74.800 320.270,74.800 320.600 C 74.800 320.930,74.991 321.200,75.224 321.200 C 75.457 321.200,75.535 321.381,75.398 321.603 C 75.261 321.824,75.441 322.118,75.798 322.254 C 76.154 322.391,76.358 322.733,76.250 323.014 C 76.142 323.295,76.402 323.840,76.827 324.224 C 77.252 324.609,77.600 325.166,77.600 325.462 C 77.600 325.758,77.870 326.000,78.200 326.000 C 78.530 326.000,78.800 326.184,78.800 326.409 C 78.800 326.634,79.543 327.624,80.451 328.609 C 81.359 329.594,81.998 330.400,81.871 330.400 C 81.745 330.400,82.757 331.531,84.121 332.913 C 85.484 334.295,86.710 335.380,86.845 335.323 C 86.981 335.267,87.811 335.891,88.690 336.710 C 91.572 339.395,93.744 341.002,94.317 340.873 C 94.633 340.802,94.764 340.934,94.617 341.173 C 94.462 341.423,94.695 341.600,95.176 341.600 C 95.629 341.600,96.000 341.780,96.000 342.000 C 96.000 342.220,96.270 342.400,96.600 342.400 C 96.930 342.400,97.200 342.552,97.200 342.737 C 97.200 342.923,98.002 343.487,98.982 343.991 C 99.963 344.495,101.125 345.243,101.566 345.654 C 102.006 346.064,102.557 346.400,102.789 346.400 C 103.250 346.400,104.880 347.247,105.200 347.654 C 105.590 348.148,108.433 349.600,109.012 349.600 C 109.335 349.600,109.600 349.780,109.600 350.000 C 109.600 350.220,109.960 350.400,110.400 350.400 C 110.840 350.400,111.200 350.580,111.200 350.800 C 111.200 351.020,111.472 351.200,111.805 351.200 C 112.138 351.200,112.723 351.365,113.105 351.567 C 114.833 352.481,117.648 353.600,118.219 353.600 C 118.565 353.600,118.759 353.743,118.651 353.917 C 118.544 354.091,118.758 354.261,119.128 354.294 C 119.497 354.327,120.880 354.737,122.200 355.206 C 123.520 355.674,125.050 356.158,125.600 356.281 C 126.150 356.404,126.885 356.751,127.232 357.053 C 127.580 357.355,127.981 357.486,128.123 357.344 C 128.265 357.202,128.661 357.319,129.003 357.603 C 129.346 357.887,130.025 358.149,130.513 358.185 C 132.290 358.315,134.823 358.914,135.032 359.253 C 135.151 359.444,135.867 359.600,136.624 359.600 C 137.381 359.600,138.000 359.780,138.000 360.000 C 138.000 360.220,138.720 360.400,139.600 360.400 C 140.480 360.400,141.200 360.580,141.200 360.800 C 141.200 361.020,141.931 361.200,142.824 361.200 C 143.804 361.200,144.349 361.358,144.200 361.600 C 144.051 361.842,144.596 362.000,145.576 362.000 C 146.469 362.000,147.200 362.180,147.200 362.400 C 147.200 362.620,148.201 362.800,149.424 362.800 C 150.804 362.800,151.553 362.952,151.400 363.200 C 151.246 363.450,152.063 363.600,153.576 363.600 C 154.925 363.600,156.000 363.777,156.000 364.000 C 156.000 364.220,156.979 364.400,158.176 364.400 C 159.373 364.400,160.464 364.580,160.600 364.800 C 160.736 365.020,162.107 365.200,163.647 365.200 C 165.187 365.200,166.351 365.356,166.233 365.546 C 166.116 365.736,167.590 365.925,169.510 365.967 C 171.429 366.008,173.054 366.194,173.120 366.381 C 173.186 366.568,175.616 366.745,178.520 366.775 C 181.492 366.806,183.858 366.998,183.933 367.215 C 184.119 367.750,216.269 367.735,216.600 367.200 C 216.743 366.968,218.926 366.800,221.790 366.800 C 224.509 366.800,226.793 366.632,226.867 366.428 C 226.940 366.223,228.564 366.008,230.475 365.949 C 232.387 365.891,233.861 365.699,233.752 365.522 C 233.642 365.345,234.924 365.200,236.600 365.200 C 238.530 365.200,239.557 365.053,239.400 364.800 C 239.197 364.471,242.364 364.142,243.700 364.353 C 243.865 364.379,244.000 364.237,244.000 364.037 C 244.000 363.837,244.945 363.574,246.100 363.451 C 249.548 363.086,253.028 362.525,252.600 362.405 C 252.229 362.301,253.587 362.002,257.300 361.368 C 258.125 361.228,258.800 360.952,258.800 360.756 C 258.800 360.560,259.599 360.400,260.576 360.400 C 261.553 360.400,262.464 360.220,262.600 360.000 C 262.736 359.780,263.377 359.600,264.024 359.600 C 264.671 359.600,265.200 359.440,265.200 359.244 C 265.200 358.892,267.351 358.395,269.100 358.342 C 269.595 358.328,270.000 358.124,270.000 357.891 C 270.000 357.658,270.118 357.585,270.263 357.730 C 270.408 357.875,270.768 357.793,271.063 357.548 C 271.358 357.303,271.600 357.216,271.600 357.356 C 271.600 357.496,272.230 357.348,273.000 357.026 C 273.770 356.704,274.400 356.558,274.400 356.700 C 274.400 356.843,274.616 356.744,274.880 356.480 C 275.144 356.216,275.690 356.000,276.094 356.000 C 276.498 356.000,277.272 355.709,277.814 355.354 C 278.356 354.999,278.800 354.823,278.800 354.963 C 278.800 355.104,279.242 354.929,279.782 354.575 C 280.323 354.221,280.981 354.064,281.244 354.227 C 281.548 354.415,281.619 354.354,281.438 354.062 C 281.261 353.776,281.437 353.600,281.901 353.600 C 282.313 353.600,283.395 353.240,284.306 352.800 C 285.216 352.360,286.240 352.000,286.581 352.000 C 286.921 352.000,287.201 351.865,287.203 351.700 C 287.207 351.341,289.144 350.400,289.880 350.400 C 290.166 350.400,290.400 350.220,290.400 350.000 C 290.400 349.780,290.771 349.600,291.224 349.600 C 291.677 349.600,291.936 349.420,291.800 349.200 C 291.659 348.972,292.004 348.800,292.600 348.800 C 293.196 348.800,293.541 348.628,293.400 348.400 C 293.264 348.180,293.523 348.000,293.976 348.000 C 294.429 348.000,294.800 347.820,294.800 347.600 C 294.800 347.380,295.160 347.200,295.600 347.200 C 296.040 347.200,296.400 347.020,296.400 346.800 C 296.400 346.580,296.760 346.400,297.200 346.400 C 297.640 346.400,298.000 346.220,298.000 346.000 C 298.000 345.780,298.371 345.600,298.824 345.600 C 299.277 345.600,299.555 345.450,299.442 345.268 C 299.329 345.085,299.858 344.691,300.618 344.393 C 301.378 344.095,302.000 343.747,302.000 343.620 C 302.000 343.493,302.720 342.944,303.600 342.400 C 304.480 341.856,305.200 341.279,305.200 341.118 C 305.200 340.957,305.451 340.922,305.758 341.039 C 306.066 341.157,306.561 340.927,306.860 340.527 C 307.428 339.766,309.573 338.069,312.071 336.405 C 312.880 335.866,313.510 335.329,313.471 335.212 C 313.432 335.096,313.527 334.947,313.683 334.883 C 314.249 334.648,318.400 330.284,318.400 329.924 C 318.400 329.720,318.580 329.664,318.800 329.800 C 319.020 329.936,319.200 329.767,319.200 329.424 C 319.200 329.081,319.375 328.800,319.590 328.800 C 319.804 328.800,320.243 328.305,320.564 327.700 C 320.886 327.095,321.787 325.880,322.567 325.000 C 323.347 324.120,324.304 322.636,324.693 321.701 C 325.082 320.767,325.535 320.002,325.700 320.001 C 325.865 320.001,326.000 319.640,326.000 319.200 C 326.000 318.760,326.180 318.400,326.400 318.400 C 326.620 318.400,326.800 318.040,326.800 317.600 C 326.800 317.160,326.947 316.800,327.128 316.800 C 327.308 316.800,327.704 315.889,328.007 314.775 C 328.310 313.661,328.703 312.660,328.879 312.551 C 329.056 312.442,329.200 311.733,329.200 310.976 C 329.200 310.219,329.380 309.600,329.600 309.600 C 329.820 309.600,330.000 308.790,330.000 307.800 C 330.000 306.810,330.163 306.000,330.361 306.000 C 330.560 306.000,330.748 303.390,330.778 300.200 C 330.814 296.410,330.689 294.400,330.417 294.400 C 330.187 294.400,330.000 293.626,330.000 292.680 C 330.000 291.734,329.829 290.789,329.619 290.579 C 329.410 290.370,329.193 289.524,329.137 288.699 C 329.082 287.875,328.893 287.200,328.718 287.200 C 328.543 287.200,328.400 286.928,328.400 286.595 C 328.400 286.262,328.227 285.677,328.016 285.295 C 327.805 284.913,327.050 283.340,326.339 281.800 C 325.628 280.260,324.926 278.910,324.779 278.800 C 324.632 278.690,324.232 278.060,323.890 277.400 C 323.548 276.740,322.897 275.807,322.443 275.326 C 321.989 274.845,321.568 274.223,321.509 273.944 C 321.449 273.664,320.545 272.563,319.500 271.498 C 318.455 270.433,317.600 269.410,317.600 269.224 C 317.600 269.038,317.319 268.778,316.975 268.646 C 316.631 268.514,316.461 268.224,316.598 268.003 C 316.735 267.781,316.627 267.600,316.357 267.600 C 316.087 267.600,315.345 267.105,314.707 266.500 C 314.069 265.895,312.947 264.827,312.213 264.127 C 311.480 263.426,310.772 262.961,310.640 263.093 C 310.508 263.225,310.400 263.023,310.400 262.643 C 310.400 262.263,310.243 262.050,310.051 262.168 C 309.859 262.287,309.153 261.893,308.482 261.292 C 306.691 259.689,306.367 259.454,304.500 258.406 C 303.565 257.882,302.800 257.306,302.800 257.126 C 302.800 256.947,302.530 256.800,302.200 256.800 C 301.870 256.800,301.600 256.620,301.600 256.400 C 301.600 256.180,301.330 256.000,301.000 256.000 C 300.670 256.000,300.400 255.809,300.400 255.576 C 300.400 255.343,300.235 255.255,300.032 255.380 C 299.830 255.505,299.393 255.336,299.061 255.004 C 298.729 254.672,298.174 254.400,297.829 254.400 C 297.483 254.400,297.200 254.220,297.200 254.000 C 297.200 253.780,296.840 253.600,296.400 253.600 C 295.960 253.600,295.600 253.420,295.600 253.200 C 295.600 252.980,295.319 252.800,294.976 252.800 C 294.633 252.800,294.467 252.616,294.606 252.390 C 294.745 252.165,294.703 252.030,294.511 252.090 C 294.319 252.151,293.361 251.810,292.381 251.334 C 291.402 250.858,290.015 250.229,289.300 249.937 C 288.585 249.644,288.000 249.269,288.000 249.102 C 288.000 248.936,287.728 248.800,287.395 248.800 C 286.810 248.800,285.211 248.042,284.800 247.570 C 284.690 247.444,283.745 247.106,282.700 246.818 C 281.655 246.531,280.800 246.139,280.800 245.948 C 280.800 245.757,280.448 245.600,280.019 245.600 C 279.589 245.600,278.824 245.435,278.319 245.233 C 276.619 244.553,275.804 244.281,275.017 244.130 C 274.587 244.047,274.137 243.849,274.017 243.690 C 273.898 243.530,273.440 243.346,273.000 243.281 C 272.560 243.216,271.930 243.053,271.600 242.921 C 270.649 242.538,269.895 242.343,268.496 242.120 C 267.779 242.005,267.094 241.751,266.973 241.556 C 266.852 241.360,266.123 241.200,265.353 241.200 C 264.583 241.200,264.042 241.056,264.151 240.880 C 264.259 240.704,263.685 240.515,262.875 240.461 C 262.065 240.406,261.230 240.190,261.021 239.981 C 260.811 239.771,259.967 239.600,259.144 239.600 C 258.321 239.600,257.536 239.420,257.400 239.200 C 257.264 238.980,256.634 238.800,256.000 238.800 C 255.366 238.800,254.736 238.620,254.600 238.400 C 254.464 238.180,253.654 238.000,252.800 238.000 C 251.946 238.000,251.136 237.820,251.000 237.600 C 250.864 237.380,249.964 237.200,249.000 237.200 C 248.036 237.200,247.136 237.020,247.000 236.800 C 246.716 236.341,242.802 236.264,242.199 236.706 C 241.979 236.868,240.740 239.070,239.445 241.600 C 236.913 246.550,234.085 251.907,232.478 254.800 C 231.206 257.089,229.574 260.096,228.354 262.400 C 227.829 263.390,227.265 264.260,227.100 264.333 C 226.935 264.407,226.800 264.812,226.800 265.233 C 226.800 265.655,226.609 266.000,226.376 266.000 C 226.143 266.000,226.064 266.180,226.200 266.400 C 226.336 266.620,226.987 266.800,227.647 266.800 C 228.307 266.800,228.753 266.952,228.639 267.137 C 228.524 267.323,229.638 267.513,231.115 267.560 C 232.592 267.606,233.860 267.814,233.933 268.022 C 234.007 268.230,235.222 268.400,236.633 268.400 C 238.045 268.400,239.200 268.545,239.200 268.722 C 239.200 268.899,239.960 269.088,240.890 269.143 C 241.819 269.198,242.697 269.434,242.841 269.667 C 243.012 269.943,243.179 269.900,243.320 269.545 C 243.474 269.158,243.546 269.145,243.568 269.500 C 243.589 269.820,244.239 270.000,245.376 270.000 C 246.353 270.000,247.264 270.180,247.400 270.400 C 247.536 270.620,248.256 270.800,249.000 270.800 C 249.744 270.800,250.452 270.960,250.573 271.156 C 250.694 271.351,251.379 271.609,252.096 271.727 C 253.961 272.036,255.705 272.428,256.400 272.696 C 256.730 272.823,257.129 272.901,257.286 272.868 C 257.443 272.836,258.073 273.000,258.686 273.233 C 259.299 273.466,259.800 273.613,259.800 273.561 C 259.800 273.508,260.250 273.712,260.800 274.014 C 261.350 274.317,262.099 274.518,262.465 274.463 C 262.830 274.407,263.246 274.550,263.388 274.781 C 263.531 275.011,264.087 275.200,264.624 275.200 C 265.161 275.200,265.600 275.380,265.600 275.600 C 265.600 275.820,266.140 276.000,266.800 276.000 C 267.460 276.000,268.000 276.180,268.000 276.400 C 268.000 276.620,268.450 276.800,269.000 276.800 C 269.550 276.800,270.000 276.980,270.000 277.200 C 270.000 277.420,270.349 277.600,270.776 277.600 C 271.203 277.600,271.664 277.780,271.800 278.000 C 271.936 278.220,272.487 278.400,273.024 278.400 C 273.561 278.400,274.000 278.580,274.000 278.800 C 274.000 279.020,274.360 279.200,274.800 279.200 C 275.240 279.200,275.600 279.380,275.600 279.600 C 275.600 279.820,275.849 280.000,276.154 280.000 C 276.984 280.000,278.827 281.040,278.527 281.339 C 278.384 281.483,278.569 281.600,278.939 281.600 C 279.548 281.600,281.100 282.300,281.600 282.800 C 281.710 282.910,282.205 283.225,282.700 283.500 C 283.195 283.775,284.003 284.225,284.496 284.500 C 284.988 284.775,285.663 285.270,285.996 285.600 C 286.328 285.930,286.868 286.259,287.196 286.332 C 287.524 286.405,287.884 286.594,287.996 286.753 C 288.108 286.912,288.912 287.573,289.782 288.221 C 291.942 289.831,295.577 293.490,295.296 293.771 C 295.170 293.897,295.247 294.000,295.468 294.000 C 296.350 294.000,298.000 298.302,298.000 300.598 C 298.000 301.996,297.849 302.754,297.600 302.600 C 297.376 302.462,297.200 302.771,297.200 303.301 C 297.200 303.822,296.840 304.636,296.400 305.108 C 295.960 305.580,295.594 306.109,295.587 306.283 C 295.572 306.642,294.166 308.400,293.894 308.400 C 293.796 308.400,292.589 309.489,291.212 310.820 C 289.834 312.151,288.632 313.165,288.540 313.073 C 288.447 312.981,287.856 313.387,287.226 313.976 C 286.595 314.565,285.207 315.486,284.140 316.023 C 283.073 316.560,282.110 317.103,282.000 317.230 C 281.890 317.356,280.990 317.896,280.000 318.430 C 279.010 318.963,278.140 319.535,278.067 319.700 C 277.993 319.865,277.658 320.000,277.321 320.000 C 276.984 320.000,275.964 320.383,275.054 320.850 C 274.145 321.318,273.087 321.858,272.705 322.050 C 272.323 322.243,271.738 322.400,271.405 322.400 C 271.072 322.400,270.800 322.580,270.800 322.800 C 270.800 323.020,270.350 323.200,269.800 323.200 C 269.250 323.200,268.800 323.380,268.800 323.600 C 268.800 323.820,268.249 324.000,267.576 324.000 C 266.903 324.000,266.452 324.160,266.572 324.355 C 266.693 324.551,266.299 324.802,265.696 324.915 C 265.093 325.027,264.150 325.247,263.600 325.404 C 263.050 325.561,262.015 325.779,261.300 325.888 C 260.585 325.998,260.000 326.209,260.000 326.357 C 260.000 326.504,259.540 326.664,258.979 326.710 C 258.417 326.757,257.635 326.967,257.241 327.178 C 256.846 327.389,256.091 327.650,255.562 327.758 C 255.033 327.865,254.029 328.128,253.330 328.340 C 252.632 328.553,251.947 328.614,251.808 328.475 C 251.670 328.337,251.431 328.425,251.278 328.673 C 251.125 328.920,250.370 329.185,249.600 329.261 C 248.830 329.338,248.105 329.525,247.990 329.679 C 247.874 329.832,247.007 330.003,246.064 330.058 C 245.121 330.114,244.260 330.304,244.151 330.480 C 244.042 330.656,243.168 330.800,242.210 330.800 C 241.251 330.800,240.407 330.962,240.333 331.160 C 240.260 331.358,239.210 331.583,238.000 331.660 C 236.790 331.737,235.707 331.922,235.594 332.072 C 235.480 332.221,234.355 332.400,233.094 332.470 C 231.832 332.539,230.800 332.731,230.800 332.898 C 230.800 333.064,229.259 333.200,227.376 333.200 C 225.196 333.200,224.043 333.345,224.200 333.600 C 224.410 333.939,221.321 334.128,215.900 334.107 C 215.515 334.105,215.200 334.261,215.200 334.452 C 215.200 334.643,208.259 334.800,199.776 334.800 C 191.293 334.800,184.443 334.653,184.554 334.474 C 184.665 334.295,182.743 334.102,180.284 334.045 C 177.824 333.988,175.719 333.803,175.606 333.632 C 175.493 333.461,174.050 333.282,172.400 333.234 C 170.750 333.186,169.229 332.979,169.020 332.773 C 168.811 332.568,167.764 332.400,166.694 332.400 C 165.623 332.400,164.431 332.231,164.044 332.023 C 163.657 331.816,162.310 331.605,161.051 331.554 C 159.792 331.503,158.670 331.313,158.557 331.131 C 158.445 330.949,157.744 330.800,157.000 330.800 C 156.256 330.800,155.536 330.620,155.400 330.400 C 155.264 330.180,154.353 330.000,153.376 330.000 C 152.399 330.000,151.600 329.820,151.600 329.600 C 151.600 329.380,150.970 329.200,150.200 329.200 C 149.430 329.200,148.800 329.039,148.800 328.842 C 148.800 328.645,148.125 328.393,147.300 328.283 C 143.986 327.838,142.852 327.579,141.779 327.023 C 141.162 326.703,140.509 326.532,140.329 326.644 C 140.148 326.756,140.000 326.677,140.000 326.469 C 140.000 326.261,139.415 325.978,138.700 325.839 C 137.985 325.701,137.040 325.499,136.600 325.390 C 136.160 325.281,135.215 325.083,134.500 324.951 C 133.785 324.818,133.200 324.550,133.200 324.355 C 133.200 324.160,132.761 324.000,132.224 324.000 C 131.687 324.000,131.136 323.820,131.000 323.600 C 130.864 323.380,130.403 323.200,129.976 323.200 C 129.549 323.200,129.200 323.020,129.200 322.800 C 129.200 322.580,128.840 322.400,128.400 322.400 C 127.960 322.400,127.600 322.220,127.600 322.000 C 127.600 321.780,127.251 321.600,126.824 321.600 C 126.397 321.600,125.936 321.420,125.800 321.200 C 125.664 320.980,125.203 320.800,124.776 320.800 C 124.349 320.800,124.000 320.620,124.000 320.400 C 124.000 320.180,123.685 319.996,123.300 319.991 C 122.915 319.986,122.150 319.630,121.600 319.200 C 121.050 318.770,120.274 318.414,119.876 318.409 C 119.478 318.404,119.264 318.220,119.400 318.000 C 119.540 317.773,119.204 317.600,118.624 317.600 C 118.061 317.600,117.600 317.448,117.600 317.263 C 117.600 317.077,116.745 316.496,115.700 315.970 C 114.655 315.444,113.509 314.696,113.153 314.307 C 112.797 313.918,112.346 313.600,112.151 313.600 C 111.956 313.600,111.047 312.895,110.132 312.033 C 109.217 311.171,108.363 310.571,108.234 310.699 C 108.105 310.828,108.000 310.633,108.000 310.267 C 108.000 309.900,107.730 309.600,107.400 309.600 C 107.070 309.600,106.800 309.330,106.800 309.000 C 106.800 308.670,106.542 308.400,106.227 308.400 C 105.912 308.400,105.540 308.040,105.400 307.600 C 105.260 307.160,104.978 306.800,104.773 306.800 C 104.568 306.800,104.400 306.530,104.400 306.200 C 104.400 305.870,104.220 305.600,104.000 305.600 C 103.780 305.600,103.600 305.330,103.600 305.000 C 103.600 304.670,103.420 304.400,103.200 304.400 C 102.980 304.400,102.800 304.040,102.800 303.600 C 102.800 303.160,102.620 302.800,102.400 302.800 C 101.030 302.800,102.486 296.506,104.386 294.217 C 104.668 293.878,104.770 293.600,104.613 293.600 C 104.251 293.600,108.228 289.720,109.945 288.400 C 110.660 287.850,111.618 287.089,112.074 286.708 C 112.530 286.328,113.088 286.131,113.313 286.270 C 113.549 286.416,113.602 286.327,113.438 286.062 C 113.272 285.792,113.399 285.600,113.743 285.600 C 114.068 285.600,114.393 285.433,114.467 285.230 C 114.540 285.026,114.870 284.801,115.200 284.730 C 115.530 284.658,115.890 284.501,116.000 284.381 C 116.632 283.688,118.818 282.400,119.362 282.400 C 119.713 282.400,120.000 282.220,120.000 282.000 C 120.000 281.780,120.270 281.600,120.600 281.600 C 120.930 281.600,121.200 281.420,121.200 281.200 C 121.200 280.980,121.661 280.800,122.224 280.800 C 122.804 280.800,123.140 280.627,123.000 280.400 C 122.864 280.180,123.123 280.000,123.576 280.000 C 124.029 280.000,124.400 279.820,124.400 279.600 C 124.400 279.380,124.760 279.200,125.200 279.200 C 125.640 279.200,126.000 279.020,126.000 278.800 C 126.000 278.580,126.439 278.400,126.976 278.400 C 127.513 278.400,128.064 278.220,128.200 278.000 C 128.336 277.780,128.797 277.600,129.224 277.600 C 129.651 277.600,130.000 277.420,130.000 277.200 C 130.000 276.980,130.540 276.800,131.200 276.800 C 131.860 276.800,132.400 276.665,132.400 276.500 C 132.400 276.205,136.971 274.606,137.846 274.594 C 138.091 274.591,138.541 274.381,138.846 274.128 C 139.151 273.875,139.490 273.667,139.600 273.667 C 139.710 273.666,140.320 273.535,140.955 273.375 C 141.591 273.216,142.401 273.053,142.755 273.014 C 143.110 272.975,143.670 272.842,144.000 272.719 C 144.330 272.595,145.410 272.281,146.400 272.020 C 147.390 271.759,148.753 271.378,149.428 271.173 C 150.104 270.968,151.103 270.800,151.648 270.800 C 152.194 270.800,152.811 270.630,153.020 270.422 C 153.229 270.214,154.255 269.989,155.300 269.922 C 156.345 269.855,157.200 269.665,157.200 269.500 C 157.200 269.335,158.010 269.200,159.000 269.200 C 159.990 269.200,160.800 269.020,160.800 268.800 C 160.800 268.574,161.933 268.400,163.400 268.400 C 164.867 268.400,166.000 268.226,166.000 268.000 C 166.000 267.774,167.133 267.600,168.600 267.600 C 170.067 267.600,171.200 267.426,171.200 267.200 C 171.200 266.980,171.729 266.800,172.376 266.800 C 173.023 266.800,173.664 266.620,173.800 266.400 C 173.936 266.180,173.857 266.000,173.624 266.000 C 173.391 266.000,173.200 265.676,173.200 265.280 C 173.200 264.884,173.037 264.389,172.837 264.180 C 172.637 263.971,172.032 262.990,171.492 262.000 C 170.952 261.010,169.970 259.210,169.308 258.000 C 166.218 252.346,161.749 243.931,159.432 239.400 C 158.757 238.080,158.024 236.868,157.802 236.706 C 157.213 236.276,153.690 236.335,153.533 236.778 " stroke="none" fill="#fcc344" fill-rule="evenodd"></path><path id="path1" d="M190.400 32.800 C 190.400 33.029,189.200 33.200,187.600 33.200 C 186.000 33.200,184.800 33.371,184.800 33.600 C 184.800 33.820,183.900 34.000,182.800 34.000 C 181.700 34.000,180.800 34.180,180.800 34.400 C 180.800 34.620,180.080 34.800,179.200 34.800 C 178.320 34.800,177.600 34.980,177.600 35.200 C 177.600 35.420,176.970 35.600,176.200 35.600 C 175.430 35.600,174.800 35.780,174.800 36.000 C 174.800 36.220,174.260 36.400,173.600 36.400 C 172.940 36.400,172.400 36.580,172.400 36.800 C 172.400 37.020,171.860 37.200,171.200 37.200 C 170.540 37.200,170.000 37.380,170.000 37.600 C 170.000 37.820,169.460 38.000,168.800 38.000 C 168.140 38.000,167.600 38.180,167.600 38.400 C 167.600 38.620,167.240 38.800,166.800 38.800 C 166.360 38.800,166.000 38.980,166.000 39.200 C 166.000 39.420,165.728 39.600,165.395 39.600 C 165.062 39.600,164.477 39.760,164.095 39.956 C 163.713 40.152,162.500 40.735,161.400 41.251 C 160.300 41.767,159.310 42.282,159.200 42.395 C 159.090 42.508,158.730 42.659,158.400 42.730 C 158.070 42.802,157.740 43.028,157.666 43.232 C 157.592 43.437,157.367 43.503,157.166 43.379 C 156.965 43.255,156.800 43.343,156.800 43.576 C 156.800 43.809,156.440 44.000,156.000 44.000 C 155.560 44.000,155.200 44.180,155.200 44.400 C 155.200 44.620,154.964 44.800,154.675 44.800 C 154.387 44.800,153.764 45.160,153.292 45.600 C 152.820 46.040,152.196 46.400,151.905 46.400 C 151.614 46.400,151.117 46.760,150.800 47.200 C 150.483 47.640,149.975 48.000,149.672 48.000 C 149.369 48.000,148.617 48.540,148.000 49.200 C 147.383 49.860,146.695 50.400,146.470 50.400 C 146.246 50.400,145.356 51.120,144.493 52.000 C 143.631 52.880,142.810 53.600,142.670 53.600 C 142.315 53.600,134.000 61.827,134.000 62.178 C 134.000 62.335,133.280 63.154,132.400 64.000 C 131.520 64.846,130.800 65.705,130.800 65.909 C 130.800 66.114,130.260 66.846,129.600 67.537 C 128.940 68.228,128.400 69.025,128.400 69.308 C 128.400 69.591,128.050 70.076,127.621 70.385 C 127.193 70.693,126.951 71.120,127.083 71.334 C 127.214 71.547,126.990 71.964,126.585 72.261 C 126.179 72.557,126.016 72.803,126.224 72.806 C 126.431 72.809,126.389 72.946,126.132 73.110 C 125.875 73.274,125.605 73.676,125.532 74.004 C 125.459 74.332,125.116 74.870,124.770 75.200 C 124.423 75.530,123.884 76.385,123.572 77.100 C 123.260 77.815,122.869 78.400,122.702 78.400 C 122.536 78.400,122.400 78.760,122.400 79.200 C 122.400 79.640,122.220 80.000,122.000 80.000 C 121.780 80.000,121.600 80.360,121.600 80.800 C 121.600 81.240,121.420 81.600,121.200 81.600 C 120.980 81.600,120.800 81.960,120.800 82.400 C 120.800 82.840,120.620 83.200,120.400 83.200 C 120.180 83.200,120.000 83.549,120.000 83.976 C 120.000 84.403,119.820 84.864,119.600 85.000 C 119.380 85.136,119.200 85.687,119.200 86.224 C 119.200 86.761,119.020 87.200,118.800 87.200 C 118.580 87.200,118.400 87.549,118.400 87.976 C 118.400 88.403,118.220 88.864,118.000 89.000 C 117.780 89.136,117.600 89.687,117.600 90.224 C 117.600 90.761,117.420 91.200,117.200 91.200 C 116.980 91.200,116.800 91.740,116.800 92.400 C 116.800 93.060,116.620 93.600,116.400 93.600 C 116.180 93.600,116.000 94.230,116.000 95.000 C 116.000 95.770,115.820 96.400,115.600 96.400 C 115.380 96.400,115.200 97.120,115.200 98.000 C 115.200 98.880,115.020 99.600,114.800 99.600 C 114.580 99.600,114.400 100.500,114.400 101.600 C 114.400 102.700,114.220 103.600,114.000 103.600 C 113.779 103.600,113.600 104.640,113.600 105.920 C 113.600 107.196,113.414 108.426,113.186 108.654 C 112.348 109.492,113.136 131.637,114.037 132.580 C 114.237 132.789,114.400 133.745,114.400 134.704 C 114.400 135.764,114.557 136.350,114.800 136.200 C 115.041 136.051,115.200 136.588,115.200 137.553 C 115.200 138.433,115.380 139.264,115.600 139.400 C 115.820 139.536,116.000 140.267,116.000 141.024 C 116.000 141.781,116.180 142.400,116.400 142.400 C 116.620 142.400,116.800 142.940,116.800 143.600 C 116.800 144.260,116.980 144.800,117.200 144.800 C 117.420 144.800,117.600 145.419,117.600 146.176 C 117.600 146.933,117.780 147.664,118.000 147.800 C 118.220 147.936,118.400 148.577,118.400 149.224 C 118.400 149.871,118.580 150.400,118.800 150.400 C 119.020 150.400,119.200 150.940,119.200 151.600 C 119.200 152.260,119.380 152.800,119.600 152.800 C 119.820 152.800,120.000 153.239,120.000 153.776 C 120.000 154.313,120.180 154.864,120.400 155.000 C 120.620 155.136,120.800 155.687,120.800 156.224 C 120.800 156.761,120.980 157.200,121.200 157.200 C 121.420 157.200,121.600 157.560,121.600 158.000 C 121.600 158.440,121.780 158.800,122.000 158.800 C 122.220 158.800,122.400 159.340,122.400 160.000 C 122.400 160.660,122.580 161.200,122.800 161.200 C 123.020 161.200,123.200 161.740,123.200 162.400 C 123.200 163.060,123.380 163.600,123.600 163.600 C 123.820 163.600,124.000 163.960,124.000 164.400 C 124.000 164.840,124.180 165.200,124.400 165.200 C 124.620 165.200,124.800 165.668,124.800 166.240 C 124.800 167.231,125.082 168.018,126.831 171.911 C 127.254 172.852,127.600 173.977,127.600 174.411 C 127.600 174.845,127.780 175.200,128.000 175.200 C 128.220 175.200,128.400 175.560,128.400 176.000 C 128.400 176.440,128.547 176.800,128.728 176.800 C 128.908 176.800,129.300 177.700,129.600 178.800 C 129.900 179.900,130.292 180.800,130.472 180.800 C 130.653 180.800,130.800 181.160,130.800 181.600 C 130.800 182.040,130.980 182.400,131.200 182.400 C 131.420 182.400,131.600 182.672,131.600 183.005 C 131.600 183.338,131.780 183.968,132.000 184.405 C 132.220 184.842,132.580 185.558,132.800 185.995 C 133.020 186.432,133.200 187.062,133.200 187.395 C 133.200 187.728,133.380 188.000,133.600 188.000 C 133.820 188.000,134.000 188.360,134.000 188.800 C 134.000 189.240,134.180 189.600,134.400 189.600 C 134.620 189.600,134.800 189.960,134.800 190.400 C 134.800 190.840,134.980 191.200,135.200 191.200 C 135.420 191.200,135.600 191.573,135.600 192.029 C 135.600 192.484,135.872 193.129,136.204 193.461 C 136.536 193.793,136.705 194.230,136.580 194.432 C 136.455 194.635,136.543 194.800,136.776 194.800 C 137.009 194.800,137.200 195.160,137.200 195.600 C 137.200 196.040,137.380 196.400,137.600 196.400 C 137.820 196.400,138.000 196.760,138.000 197.200 C 138.000 197.640,138.180 198.000,138.400 198.000 C 138.620 198.000,138.800 198.360,138.800 198.800 C 138.800 199.240,138.980 199.600,139.200 199.600 C 139.420 199.600,139.600 199.960,139.600 200.400 C 139.600 200.840,139.780 201.200,140.000 201.200 C 140.220 201.200,140.400 201.650,140.400 202.200 C 140.400 202.750,140.580 203.200,140.800 203.200 C 141.020 203.200,141.200 203.453,141.200 203.762 C 141.200 204.444,142.846 207.690,143.388 208.078 C 143.602 208.231,143.660 208.474,143.517 208.617 C 143.374 208.760,143.604 209.495,144.028 210.250 C 144.453 211.006,144.800 211.889,144.800 212.212 C 144.800 212.535,144.980 212.800,145.200 212.800 C 145.420 212.800,145.600 213.160,145.600 213.600 C 145.600 214.040,145.780 214.400,146.000 214.400 C 146.220 214.400,146.400 214.760,146.400 215.200 C 146.400 215.640,146.580 216.000,146.800 216.000 C 147.020 216.000,147.200 216.360,147.200 216.800 C 147.200 217.240,147.380 217.600,147.600 217.600 C 147.820 217.600,148.000 217.960,148.000 218.400 C 148.000 218.840,148.180 219.200,148.400 219.200 C 148.620 219.200,148.800 219.560,148.800 220.000 C 148.800 220.440,148.980 220.800,149.200 220.800 C 149.420 220.800,149.600 221.160,149.600 221.600 C 149.600 222.040,149.746 222.400,149.925 222.400 C 150.104 222.400,150.498 223.030,150.800 223.800 C 151.102 224.570,151.496 225.200,151.675 225.200 C 151.854 225.200,152.000 225.560,152.000 226.000 C 152.000 226.440,152.180 226.800,152.400 226.800 C 152.620 226.800,152.800 227.160,152.800 227.600 C 152.800 228.040,152.980 228.400,153.200 228.400 C 153.420 228.400,153.600 228.760,153.600 229.200 C 153.600 229.640,153.780 230.000,154.000 230.000 C 154.220 230.000,154.400 230.360,154.400 230.800 C 154.400 231.240,154.580 231.600,154.800 231.600 C 155.020 231.600,155.200 231.960,155.200 232.400 C 155.200 232.840,155.380 233.200,155.600 233.200 C 155.820 233.200,156.000 233.560,156.000 234.000 C 156.000 234.440,156.159 234.800,156.353 234.800 C 156.548 234.800,156.797 235.145,156.907 235.566 C 157.017 235.987,157.525 236.392,158.035 236.466 C 158.993 236.604,159.099 236.772,163.197 244.600 C 165.310 248.638,167.718 253.135,170.159 257.603 C 171.062 259.254,172.070 261.144,172.399 261.803 C 172.729 262.461,173.089 263.090,173.199 263.200 C 174.040 264.038,174.427 265.456,174.193 266.840 C 174.043 267.730,174.090 268.400,174.304 268.400 C 174.510 268.400,175.018 269.165,175.432 270.100 C 176.338 272.142,178.481 275.747,178.900 275.933 C 179.065 276.007,179.200 276.412,179.200 276.833 C 179.200 277.255,179.380 277.600,179.600 277.600 C 179.820 277.600,180.000 277.945,180.000 278.367 C 180.000 278.788,180.135 279.193,180.300 279.267 C 180.676 279.434,181.975 281.564,182.271 282.500 C 182.393 282.885,182.652 283.200,182.847 283.200 C 183.041 283.200,183.200 283.560,183.200 284.000 C 183.200 284.440,183.380 284.800,183.600 284.800 C 183.820 284.800,184.000 285.078,184.000 285.417 C 184.000 285.756,184.360 286.420,184.800 286.892 C 185.240 287.364,185.600 287.987,185.600 288.275 C 185.600 288.564,185.736 288.800,185.902 288.800 C 186.069 288.800,186.464 289.385,186.780 290.100 C 187.097 290.815,187.680 291.749,188.078 292.175 C 188.475 292.602,188.800 293.187,188.800 293.475 C 188.800 293.764,188.980 294.000,189.200 294.000 C 189.420 294.000,189.600 294.360,189.600 294.800 C 189.600 295.240,189.780 295.600,190.000 295.600 C 190.220 295.600,190.400 295.878,190.400 296.217 C 190.400 296.556,190.760 297.220,191.200 297.692 C 191.640 298.164,192.000 298.787,192.000 299.075 C 192.000 299.364,192.210 299.600,192.467 299.600 C 192.723 299.600,192.817 299.717,192.674 299.859 C 192.403 300.130,193.979 303.302,194.500 303.533 C 194.665 303.607,194.800 303.844,194.800 304.061 C 194.800 304.278,195.340 305.241,196.000 306.200 C 196.660 307.159,197.200 308.137,197.200 308.372 C 197.200 308.607,197.380 308.800,197.600 308.800 C 197.820 308.800,198.000 309.083,198.000 309.429 C 198.000 310.320,198.993 311.200,200.000 311.200 C 201.007 311.200,202.000 310.320,202.000 309.429 C 202.000 309.083,202.180 308.800,202.400 308.800 C 202.620 308.800,202.800 308.607,202.800 308.372 C 202.800 308.137,203.340 307.159,204.000 306.200 C 204.660 305.241,205.200 304.263,205.200 304.028 C 205.200 303.793,205.335 303.599,205.500 303.597 C 205.665 303.595,205.993 303.190,206.229 302.697 C 207.447 300.153,209.004 297.385,209.284 297.267 C 209.458 297.193,209.600 296.788,209.600 296.367 C 209.600 295.945,209.780 295.600,210.000 295.600 C 210.220 295.600,210.400 295.240,210.400 294.800 C 210.400 294.360,210.580 294.000,210.800 294.000 C 211.020 294.000,211.200 293.764,211.200 293.475 C 211.200 293.187,211.525 292.602,211.922 292.175 C 212.320 291.749,212.903 290.815,213.220 290.100 C 213.536 289.385,213.931 288.800,214.098 288.800 C 214.264 288.800,214.400 288.564,214.400 288.275 C 214.400 287.987,214.760 287.364,215.200 286.892 C 215.640 286.420,216.000 285.756,216.000 285.417 C 216.000 285.078,216.180 284.800,216.400 284.800 C 216.620 284.800,216.800 284.440,216.800 284.000 C 216.800 283.560,216.980 283.200,217.200 283.200 C 217.420 283.200,217.600 282.964,217.600 282.675 C 217.600 282.387,217.960 281.764,218.400 281.292 C 218.840 280.820,219.200 280.156,219.200 279.817 C 219.200 279.478,219.380 279.200,219.600 279.200 C 219.820 279.200,220.000 278.840,220.000 278.400 C 220.000 277.960,220.180 277.600,220.400 277.600 C 220.620 277.600,220.800 277.240,220.800 276.800 C 220.800 276.360,220.947 276.000,221.126 276.000 C 221.453 276.000,222.458 274.309,224.335 270.600 C 224.892 269.500,225.507 268.491,225.703 268.358 C 225.898 268.226,225.931 267.441,225.776 266.615 C 225.621 265.788,225.653 264.997,225.847 264.856 C 226.041 264.715,226.901 263.250,227.757 261.600 C 228.613 259.950,229.807 257.700,230.411 256.600 C 233.064 251.760,237.649 243.165,239.371 239.800 C 240.857 236.898,241.296 236.400,242.371 236.400 C 242.933 236.400,243.200 236.143,243.200 235.600 C 243.200 235.160,243.380 234.800,243.600 234.800 C 243.820 234.800,244.000 234.440,244.000 234.000 C 244.000 233.560,244.180 233.200,244.400 233.200 C 244.620 233.200,244.800 232.840,244.800 232.400 C 244.800 231.960,244.980 231.600,245.200 231.600 C 245.420 231.600,245.600 231.240,245.600 230.800 C 245.600 230.360,245.780 230.000,246.000 230.000 C 246.220 230.000,246.400 229.640,246.400 229.200 C 246.400 228.760,246.580 228.400,246.800 228.400 C 247.020 228.400,247.200 228.040,247.200 227.600 C 247.200 227.160,247.380 226.800,247.600 226.800 C 247.820 226.800,248.000 226.440,248.000 226.000 C 248.000 225.560,248.146 225.200,248.325 225.200 C 248.504 225.200,248.898 224.570,249.200 223.800 C 249.502 223.030,249.896 222.400,250.075 222.400 C 250.254 222.400,250.400 222.040,250.400 221.600 C 250.400 221.160,250.580 220.800,250.800 220.800 C 251.020 220.800,251.200 220.440,251.200 220.000 C 251.200 219.560,251.380 219.200,251.600 219.200 C 251.820 219.200,252.000 218.840,252.000 218.400 C 252.000 217.960,252.180 217.600,252.400 217.600 C 252.620 217.600,252.800 217.240,252.800 216.800 C 252.800 216.360,252.980 216.000,253.200 216.000 C 253.420 216.000,253.600 215.640,253.600 215.200 C 253.600 214.760,253.780 214.400,254.000 214.400 C 254.220 214.400,254.400 214.040,254.400 213.600 C 254.400 213.160,254.580 212.800,254.800 212.800 C 255.020 212.800,255.200 212.440,255.200 212.000 C 255.200 211.560,255.380 211.200,255.600 211.200 C 255.820 211.200,256.000 210.965,256.000 210.677 C 256.000 210.389,256.629 208.904,257.399 207.377 C 258.168 205.850,258.798 204.285,258.799 203.900 C 258.799 203.515,258.980 203.200,259.200 203.200 C 259.420 203.200,259.600 202.851,259.600 202.424 C 259.600 201.997,259.780 201.536,260.000 201.400 C 260.220 201.264,260.400 200.803,260.400 200.376 C 260.400 199.949,260.580 199.600,260.800 199.600 C 261.020 199.600,261.200 199.240,261.200 198.800 C 261.200 198.360,261.380 198.000,261.600 198.000 C 261.820 198.000,262.000 197.640,262.000 197.200 C 262.000 196.760,262.180 196.400,262.400 196.400 C 262.620 196.400,262.800 196.040,262.800 195.600 C 262.800 195.160,262.980 194.800,263.200 194.800 C 263.420 194.800,263.600 194.440,263.600 194.000 C 263.600 193.560,263.780 193.200,264.000 193.200 C 264.220 193.200,264.400 192.750,264.400 192.200 C 264.400 191.650,264.580 191.200,264.800 191.200 C 265.020 191.200,265.200 190.840,265.200 190.400 C 265.200 189.960,265.380 189.600,265.600 189.600 C 265.820 189.600,266.000 189.240,266.000 188.800 C 266.000 188.360,266.180 188.000,266.400 188.000 C 266.620 188.000,266.800 187.728,266.800 187.395 C 266.800 187.062,266.980 186.432,267.200 185.995 C 267.420 185.558,267.780 184.842,268.000 184.405 C 268.220 183.968,268.400 183.338,268.400 183.005 C 268.400 182.672,268.580 182.400,268.800 182.400 C 269.020 182.400,269.200 182.040,269.200 181.600 C 269.200 181.160,269.347 180.800,269.528 180.800 C 269.708 180.800,270.100 179.900,270.400 178.800 C 270.700 177.700,271.092 176.800,271.272 176.800 C 271.453 176.800,271.600 176.528,271.600 176.195 C 271.600 175.862,271.765 175.277,271.967 174.895 C 272.685 173.538,274.000 170.403,274.000 170.050 C 274.000 169.853,274.269 169.176,274.598 168.546 C 274.926 167.916,275.196 166.905,275.198 166.300 C 275.199 165.695,275.380 165.200,275.600 165.200 C 275.820 165.200,276.000 164.739,276.000 164.176 C 276.000 163.596,276.173 163.260,276.400 163.400 C 276.633 163.544,276.800 163.137,276.800 162.424 C 276.800 161.751,276.980 161.200,277.200 161.200 C 277.420 161.200,277.600 160.660,277.600 160.000 C 277.600 159.340,277.780 158.800,278.000 158.800 C 278.220 158.800,278.400 158.440,278.400 158.000 C 278.400 157.560,278.580 157.200,278.800 157.200 C 279.020 157.200,279.200 156.761,279.200 156.224 C 279.200 155.687,279.380 155.136,279.600 155.000 C 279.820 154.864,280.000 154.313,280.000 153.776 C 280.000 153.239,280.180 152.800,280.400 152.800 C 280.620 152.800,280.800 152.260,280.800 151.600 C 280.800 150.940,280.980 150.400,281.200 150.400 C 281.420 150.400,281.600 149.871,281.600 149.224 C 281.600 148.577,281.780 147.936,282.000 147.800 C 282.220 147.664,282.400 146.933,282.400 146.176 C 282.400 145.419,282.580 144.800,282.800 144.800 C 283.020 144.800,283.200 144.260,283.200 143.600 C 283.200 142.940,283.380 142.400,283.600 142.400 C 283.820 142.400,284.000 141.781,284.000 141.024 C 284.000 140.267,284.180 139.536,284.400 139.400 C 284.620 139.264,284.800 138.533,284.800 137.776 C 284.800 137.019,284.980 136.400,285.200 136.400 C 285.420 136.400,285.600 135.626,285.600 134.680 C 285.600 133.734,285.763 132.789,285.963 132.580 C 287.246 131.237,287.249 103.600,285.966 103.600 C 285.765 103.600,285.600 102.700,285.600 101.600 C 285.600 100.500,285.420 99.600,285.200 99.600 C 284.980 99.600,284.800 98.880,284.800 98.000 C 284.800 97.120,284.620 96.400,284.400 96.400 C 284.180 96.400,284.000 95.871,284.000 95.224 C 284.000 94.577,283.820 93.936,283.600 93.800 C 283.380 93.664,283.200 93.201,283.200 92.771 C 283.200 92.341,283.020 91.632,282.800 91.195 C 282.580 90.758,282.220 90.042,282.000 89.605 C 281.780 89.168,281.600 88.448,281.600 88.005 C 281.600 87.562,281.420 87.200,281.200 87.200 C 280.980 87.200,280.800 86.761,280.800 86.224 C 280.800 85.687,280.620 85.136,280.400 85.000 C 280.180 84.864,280.000 84.403,280.000 83.976 C 280.000 83.549,279.820 83.200,279.600 83.200 C 279.380 83.200,279.200 82.840,279.200 82.400 C 279.200 81.960,279.020 81.600,278.800 81.600 C 278.580 81.600,278.400 81.240,278.400 80.800 C 278.400 80.360,278.220 80.000,278.000 80.000 C 277.780 80.000,277.600 79.640,277.600 79.200 C 277.600 78.760,277.464 78.400,277.298 78.400 C 277.131 78.400,276.756 77.859,276.463 77.198 C 276.170 76.536,275.796 76.079,275.632 76.180 C 275.468 76.282,275.333 76.148,275.333 75.882 C 275.333 75.116,273.945 72.400,273.554 72.400 C 273.359 72.400,273.200 72.080,273.200 71.688 C 273.200 71.297,272.840 70.717,272.400 70.400 C 271.960 70.083,271.600 69.591,271.600 69.308 C 271.600 69.025,271.060 68.228,270.400 67.537 C 269.740 66.846,269.200 66.114,269.200 65.909 C 269.200 65.705,268.480 64.846,267.600 64.000 C 266.720 63.154,266.000 62.309,266.000 62.120 C 266.000 61.763,257.707 53.600,257.344 53.600 C 257.230 53.600,256.446 52.880,255.600 52.000 C 254.754 51.120,253.851 50.400,253.592 50.400 C 253.333 50.400,252.617 49.860,252.000 49.200 C 251.383 48.540,250.631 48.000,250.328 48.000 C 250.025 48.000,249.517 47.640,249.200 47.200 C 248.883 46.760,248.386 46.400,248.095 46.400 C 247.804 46.400,247.180 46.040,246.708 45.600 C 246.236 45.160,245.613 44.800,245.325 44.800 C 245.036 44.800,244.800 44.620,244.800 44.400 C 244.800 44.180,244.513 44.000,244.163 44.000 C 243.813 44.000,243.072 43.642,242.516 43.205 C 241.961 42.768,241.347 42.509,241.153 42.629 C 240.959 42.749,240.800 42.690,240.800 42.498 C 240.800 42.306,240.170 41.902,239.400 41.600 C 238.630 41.298,238.000 40.904,238.000 40.725 C 238.000 40.546,237.561 40.400,237.024 40.400 C 236.487 40.400,235.936 40.220,235.800 40.000 C 235.664 39.780,235.203 39.600,234.776 39.600 C 234.349 39.600,234.000 39.420,234.000 39.200 C 234.000 38.980,233.640 38.800,233.200 38.800 C 232.760 38.800,232.400 38.620,232.400 38.400 C 232.400 38.180,231.860 38.000,231.200 38.000 C 230.540 38.000,230.000 37.820,230.000 37.600 C 230.000 37.380,229.460 37.200,228.800 37.200 C 228.140 37.200,227.600 37.020,227.600 36.800 C 227.600 36.580,227.060 36.400,226.400 36.400 C 225.740 36.400,225.200 36.220,225.200 36.000 C 225.200 35.780,224.570 35.600,223.800 35.600 C 223.030 35.600,222.400 35.420,222.400 35.200 C 222.400 34.980,221.680 34.800,220.800 34.800 C 219.920 34.800,219.200 34.620,219.200 34.400 C 219.200 34.180,218.300 34.000,217.200 34.000 C 216.100 34.000,215.200 33.820,215.200 33.600 C 215.200 33.371,214.000 33.200,212.400 33.200 C 210.800 33.200,209.600 33.029,209.600 32.800 C 209.600 32.544,206.133 32.400,200.000 32.400 C 193.867 32.400,190.400 32.544,190.400 32.800 M201.772 74.391 C 202.447 74.607,204.576 74.893,206.501 75.027 C 208.441 75.163,209.902 75.434,209.778 75.636 C 209.654 75.836,210.013 76.000,210.576 76.000 C 211.139 76.000,211.600 76.180,211.600 76.400 C 211.600 76.620,212.050 76.800,212.600 76.800 C 213.150 76.800,213.600 76.980,213.600 77.200 C 213.600 77.420,213.960 77.600,214.400 77.600 C 214.840 77.600,215.200 77.780,215.200 78.000 C 215.200 78.220,215.436 78.400,215.725 78.400 C 216.013 78.400,216.636 78.760,217.108 79.200 C 217.580 79.640,218.132 80.000,218.335 80.000 C 218.538 80.000,219.430 80.705,220.318 81.567 C 221.206 82.429,222.038 83.029,222.166 82.900 C 222.295 82.772,222.400 82.883,222.400 83.147 C 222.400 83.411,222.985 84.227,223.700 84.961 C 225.450 86.757,227.172 88.800,226.937 88.800 C 226.832 88.800,227.095 89.295,227.521 89.900 C 228.526 91.325,230.000 94.402,230.000 95.075 C 230.000 95.364,230.180 95.600,230.400 95.600 C 230.620 95.600,230.800 96.140,230.800 96.800 C 230.800 97.460,230.980 98.000,231.200 98.000 C 231.420 98.000,231.600 98.720,231.600 99.600 C 231.600 100.480,231.780 101.200,232.000 101.200 C 232.247 101.200,232.400 103.259,232.400 106.576 C 232.400 109.729,232.235 112.055,232.000 112.200 C 231.780 112.336,231.600 113.056,231.600 113.800 C 231.600 114.544,231.420 115.264,231.200 115.400 C 230.980 115.536,230.800 116.076,230.800 116.600 C 230.800 117.124,230.620 117.664,230.400 117.800 C 230.180 117.936,230.000 118.487,230.000 119.024 C 230.000 119.561,229.820 120.000,229.600 120.000 C 229.380 120.000,229.200 120.360,229.200 120.800 C 229.200 121.240,229.020 121.600,228.800 121.600 C 228.580 121.600,228.400 121.878,228.400 122.217 C 228.400 122.556,228.036 123.225,227.590 123.703 C 227.145 124.181,226.869 124.803,226.978 125.086 C 227.089 125.376,226.889 125.600,226.521 125.600 C 226.161 125.600,225.986 125.719,226.131 125.864 C 226.276 126.009,226.036 126.380,225.597 126.687 C 225.159 126.994,224.800 127.433,224.800 127.662 C 224.800 128.169,221.225 131.600,220.697 131.600 C 220.490 131.600,219.817 132.140,219.200 132.800 C 218.583 133.460,217.791 134.000,217.440 134.000 C 217.088 134.000,216.800 134.159,216.800 134.353 C 216.800 134.548,216.485 134.807,216.100 134.929 C 215.715 135.051,214.860 135.459,214.200 135.836 C 212.286 136.929,211.651 137.200,211.005 137.200 C 210.672 137.200,210.400 137.380,210.400 137.600 C 210.400 137.820,209.871 138.000,209.224 138.000 C 208.577 138.000,207.936 138.180,207.800 138.400 C 207.664 138.620,206.764 138.800,205.800 138.800 C 204.836 138.800,203.936 138.980,203.800 139.200 C 203.664 139.420,201.954 139.600,200.000 139.600 C 198.046 139.600,196.336 139.420,196.200 139.200 C 196.064 138.980,195.164 138.800,194.200 138.800 C 193.236 138.800,192.336 138.620,192.200 138.400 C 192.064 138.180,191.423 138.000,190.776 138.000 C 190.129 138.000,189.600 137.820,189.600 137.600 C 189.600 137.380,189.328 137.200,188.995 137.200 C 188.349 137.200,187.714 136.929,185.800 135.836 C 185.140 135.459,184.285 135.051,183.900 134.929 C 183.515 134.807,183.200 134.548,183.200 134.353 C 183.200 134.159,182.924 134.000,182.587 134.000 C 182.249 134.000,181.343 133.370,180.573 132.600 C 179.803 131.830,179.014 131.200,178.819 131.200 C 178.361 131.200,175.200 128.167,175.200 127.727 C 175.200 127.543,174.795 126.944,174.300 126.396 C 173.805 125.848,173.145 124.905,172.832 124.300 C 172.520 123.695,172.115 123.200,171.932 123.200 C 171.750 123.200,171.600 122.840,171.600 122.400 C 171.600 121.960,171.420 121.600,171.200 121.600 C 170.980 121.600,170.800 121.240,170.800 120.800 C 170.800 120.360,170.620 120.000,170.400 120.000 C 170.180 120.000,170.000 119.561,170.000 119.024 C 170.000 118.487,169.820 117.936,169.600 117.800 C 169.380 117.664,169.200 117.149,169.200 116.656 C 169.200 116.163,169.026 115.586,168.813 115.373 C 168.601 115.161,168.382 114.391,168.326 113.663 C 168.271 112.935,168.085 112.252,167.913 112.146 C 167.439 111.853,167.524 101.200,168.000 101.200 C 168.220 101.200,168.400 100.480,168.400 99.600 C 168.400 98.720,168.580 98.000,168.800 98.000 C 169.020 98.000,169.200 97.460,169.200 96.800 C 169.200 96.140,169.380 95.600,169.600 95.600 C 169.820 95.600,170.000 95.388,170.000 95.128 C 170.000 94.373,171.710 90.800,172.071 90.800 C 172.252 90.800,172.400 90.607,172.400 90.372 C 172.400 89.198,179.687 80.800,180.705 80.800 C 180.894 80.800,181.398 80.485,181.825 80.100 C 182.251 79.715,183.095 79.145,183.700 78.832 C 184.305 78.520,184.800 78.115,184.800 77.932 C 184.800 77.750,185.160 77.600,185.600 77.600 C 186.040 77.600,186.400 77.420,186.400 77.200 C 186.400 76.980,186.850 76.800,187.400 76.800 C 187.950 76.800,188.400 76.620,188.400 76.400 C 188.400 76.180,188.835 76.000,189.367 76.000 C 189.898 76.000,190.393 75.821,190.467 75.602 C 190.540 75.384,192.310 75.087,194.400 74.944 C 196.490 74.800,198.560 74.540,199.000 74.366 C 200.088 73.937,200.353 73.940,201.772 74.391 " stroke="none" fill="#cc442c" fill-rule="evenodd"></path><path id="path2" d="M160.986 241.100 C 161.335 241.815,161.706 242.400,161.810 242.400 C 162.208 242.400,161.952 241.763,161.167 240.800 L 160.352 239.800 160.986 241.100 M237.760 242.877 C 237.397 243.580,236.753 244.771,236.330 245.524 C 235.907 246.278,235.628 246.961,235.710 247.043 C 235.792 247.125,236.528 245.934,237.346 244.396 C 238.164 242.858,238.741 241.600,238.627 241.600 C 238.514 241.600,238.123 242.175,237.760 242.877 M164.760 248.200 C 165.434 249.505,165.988 250.228,165.985 249.800 C 165.983 249.580,165.614 248.950,165.164 248.400 C 164.621 247.736,164.485 247.669,164.760 248.200 M234.313 249.300 C 233.237 251.324,232.772 252.400,232.972 252.400 C 233.053 252.400,233.681 251.320,234.368 250.000 C 235.055 248.680,235.527 247.600,235.417 247.600 C 235.306 247.600,234.810 248.365,234.313 249.300 M167.600 253.600 C 168.049 254.480,168.506 255.200,168.616 255.200 C 168.726 255.200,168.449 254.480,168.000 253.600 C 167.551 252.720,167.094 252.000,166.984 252.000 C 166.874 252.000,167.151 252.720,167.600 253.600 M231.800 254.000 C 231.459 254.660,231.269 255.200,231.379 255.200 C 231.489 255.200,231.859 254.660,232.200 254.000 C 232.541 253.340,232.731 252.800,232.621 252.800 C 232.511 252.800,232.141 253.340,231.800 254.000 M168.809 255.900 C 168.814 256.065,169.185 256.650,169.633 257.200 L 170.448 258.200 169.814 256.900 C 169.211 255.665,168.789 255.245,168.809 255.900 M229.400 258.400 C 229.059 259.060,228.869 259.600,228.979 259.600 C 229.089 259.600,229.459 259.060,229.800 258.400 C 230.141 257.740,230.331 257.200,230.221 257.200 C 230.111 257.200,229.741 257.740,229.400 258.400 M225.600 265.800 C 225.600 266.350,225.669 266.800,225.753 266.800 C 225.838 266.800,225.993 266.350,226.098 265.800 C 226.203 265.250,226.134 264.800,225.945 264.800 C 225.755 264.800,225.600 265.250,225.600 265.800 " stroke="none" fill="#dc6434" fill-rule="evenodd"></path><path id="path3" d="M159.200 238.975 C 159.200 239.294,161.700 243.792,162.104 244.200 C 162.640 244.742,162.459 244.308,160.891 241.300 C 159.756 239.122,159.200 238.357,159.200 238.975 M238.157 243.300 C 236.942 245.680,233.520 252.166,232.088 254.800 C 231.311 256.230,230.866 257.220,231.100 257.000 C 231.617 256.513,232.208 255.452,236.168 247.900 C 237.870 244.655,239.162 242.000,239.041 242.000 C 238.920 242.000,238.522 242.585,238.157 243.300 M166.092 252.000 C 167.307 254.310,168.774 257.055,169.351 258.100 C 169.928 259.145,170.867 260.855,171.437 261.900 C 172.007 262.945,172.663 263.980,172.895 264.200 C 173.273 264.559,171.655 261.418,168.877 256.400 C 168.329 255.410,167.168 253.250,166.296 251.600 C 165.424 249.950,164.524 248.420,164.297 248.200 C 164.069 247.980,164.877 249.690,166.092 252.000 M229.409 259.698 C 228.792 260.854,228.476 261.620,228.706 261.400 C 229.301 260.832,230.870 257.937,230.684 257.751 C 230.599 257.666,230.025 258.542,229.409 259.698 M227.419 263.163 C 227.067 263.843,226.919 264.399,227.090 264.397 C 227.455 264.393,228.469 262.335,228.225 262.092 C 228.134 262.000,227.771 262.482,227.419 263.163 " stroke="none" fill="#f4a43c" fill-rule="evenodd"></path><path id="path4" d="M165.400 250.000 C 165.741 250.660,166.111 251.200,166.221 251.200 C 166.331 251.200,166.141 250.660,165.800 250.000 C 165.459 249.340,165.089 248.800,164.979 248.800 C 164.869 248.800,165.059 249.340,165.400 250.000 M232.600 253.200 C 232.259 253.860,232.069 254.400,232.179 254.400 C 232.289 254.400,232.659 253.860,233.000 253.200 C 233.341 252.540,233.531 252.000,233.421 252.000 C 233.311 252.000,232.941 252.540,232.600 253.200 M230.200 257.600 C 229.859 258.260,229.669 258.800,229.779 258.800 C 229.889 258.800,230.259 258.260,230.600 257.600 C 230.941 256.940,231.131 256.400,231.021 256.400 C 230.911 256.400,230.541 256.940,230.200 257.600 M173.478 264.995 C 173.844 265.762,174.214 266.319,174.301 266.232 C 174.484 266.049,173.270 263.600,172.996 263.600 C 172.895 263.600,173.112 264.228,173.478 264.995 " stroke="none" fill="#e47c34" fill-rule="evenodd"></path></g></svg>